HIERARCHY
ROOT hip
{
	OFFSET 0.000000 0.000000 0.000000
	CHANNELS 6 Xposition Yposition Zposition Xrotation Zrotation Yrotation 
	JOINT abdomen
	{
		OFFSET 0.000000 3.422050 0.000000
		CHANNELS 3 Xrotation Zrotation Yrotation 
		JOINT chest
		{
			OFFSET 0.000000 8.486693 -0.684411
			CHANNELS 3 Xrotation Zrotation Yrotation 
			JOINT neck
			{
				OFFSET 0.000000 10.266162 -0.273764
				CHANNELS 3 Xrotation Zrotation Yrotation 
				JOINT head
				{
					OFFSET 0.000000 3.148285 0.000000
					CHANNELS 3 Xrotation Zrotation Yrotation 
					End Site
					{
						OFFSET 0.000000 3.148289 0.000000
					}
				}
			}
			JOINT lCollar
			{
				OFFSET 3.422053 6.707223 -0.821293
				CHANNELS 3 Yrotation Zrotation Xrotation 
				JOINT lShldr
				{
					OFFSET 3.285171 0.000000 0.000000
					CHANNELS 3 Zrotation Yrotation Xrotation 
					JOINT lForeArm
					{
						OFFSET 10.129278 0.000000 0.000000
						CHANNELS 3 Yrotation Zrotation Xrotation 
						JOINT lHand
						{
							OFFSET 8.486692 0.000000 0.000000
							CHANNELS 3 Zrotation Yrotation Xrotation 
							End Site
							{
								OFFSET 4.106464 0.000000 0.000000
							}
						}
					}
				}
			}
			JOINT rCollar
			{
				OFFSET -3.558935 6.707223 -0.821293
				CHANNELS 3 Yrotation Zrotation Xrotation 
				JOINT rShldr
				{
					OFFSET -3.148289 0.000000 0.000000
					CHANNELS 3 Zrotation Yrotation Xrotation 
					JOINT rForeArm
					{
						OFFSET -10.266159 0.000000 0.000000
						CHANNELS 3 Yrotation Zrotation Xrotation 
						JOINT rHand
						{
							OFFSET -8.349810 0.000000 0.000000
							CHANNELS 3 Zrotation Yrotation Xrotation 
							End Site
							{
								OFFSET -4.106464 0.000000 0.000000
							}
						}
					}
				}
			}
		}
	}
	JOINT lThigh
	{
		OFFSET 5.338403 -1.642589 1.368821
		CHANNELS 3 Xrotation Zrotation Yrotation 
		JOINT lShin
		{
			OFFSET -2.053232 -20.121670 0.000000
			CHANNELS 3 Xrotation Zrotation Yrotation 
			JOINT lFoot
			{
				OFFSET 0.000000 -19.300380 -1.231939
				CHANNELS 3 Xrotation Yrotation Zrotation 
				End Site
				{
					OFFSET 0.000000 -2.463878 4.653993
				}
			}
		}
	}
	JOINT rThigh
	{
		OFFSET -5.338403 -1.642589 1.368821
		CHANNELS 3 Xrotation Zrotation Yrotation 
		JOINT rShin
		{
			OFFSET 2.053232 -20.121670 0.000000
			CHANNELS 3 Xrotation Zrotation Yrotation 
			JOINT rFoot
			{
				OFFSET 0.000000 -19.300380 -1.231939
				CHANNELS 3 Xrotation Yrotation Zrotation 
				End Site
				{
					OFFSET 0.000000 -2.463878 4.653993
				}
			}
		}
	}
}
MOTION
Frames: 6
Frame Time: 0.033264
-5.675712 5.251863 -34.415787 -90.011284 4.733152 90.001869 -8.672758 2.868284 -2.355940 -6.594344 7.293159 -0.236451 -2.004991 8.992908 -0.001564 -10.001796 -0.001051 -14.714082 -8.295074 -17.688259 -5.487122 -54.266785 -66.034637 6.091722 11.087215 -9.535007 4.700900 -64.285271 -29.758308 12.678040 -43.766109 18.698709 -9.622652 29.217501 -16.132257 10.904942 13.132696 64.761353 -44.528030 -30.854502 12.580626 7.283995 8.922288 0.320236 7.094262 41.529404 1.094117 -4.366484 46.052765 5.385913 1.595328 -40.966011 -64.069389 -41.394753 125.131516 23.182280 17.870556 26.772493 15.427159 4.121610 
-5.638315 5.251863 -34.432758 -90.011559 4.958564 90.001862 -8.672758 2.868284 -2.355940 -6.594344 7.293159 -0.236451 -2.004991 8.992908 -0.001564 -10.001790 -0.001060 -14.843760 -8.737140 -17.927710 -5.441975 -53.477619 -65.719452 5.399504 11.016356 -9.304616 4.686259 -64.429390 -29.694008 12.659104 -43.766109 18.698709 -9.622652 29.217501 -16.132257 10.904942 13.132696 64.761353 -44.528030 -30.854502 12.580626 7.283995 9.331930 0.325190 7.076293 41.247009 1.042121 -4.369267 46.052765 5.385913 1.595328 -40.477104 -64.096405 -41.551018 125.131516 23.182280 17.870556 26.772493 15.427159 4.121610 
-5.600919 5.251863 -34.449730 -90.011864 5.183974 90.001862 -8.672757 2.868284 -2.355940 -6.594344 7.293159 -0.236451 -2.004991 8.992908 -0.001564 -10.001784 -0.001068 -14.973438 -9.179570 -18.167459 -5.398714 -52.707241 -65.400452 4.726200 10.945606 -9.074214 4.671918 -64.573486 -29.629765 12.640000 -43.766109 18.698709 -9.622652 29.217501 -16.132257 10.904942 13.132696 64.761353 -44.528030 -30.854502 12.580626 7.283995 9.741548 0.330271 7.058360 40.964653 0.990114 -4.371796 46.052765 5.385913 1.595328 -39.987568 -64.122826 -41.707939 125.131516 23.182280 17.870556 26.772493 15.427159 4.121610 
-5.563522 5.251863 -34.466702 -90.012161 5.409383 90.001862 -8.672759 2.868284 -2.355941 -6.594344 7.293159 -0.236451 -2.004991 8.992908 -0.001564 -10.001779 -0.001077 -15.103112 -9.622371 -18.407495 -5.357352 -51.955189 -65.077812 4.071328 10.874964 -8.843801 4.657876 -64.717484 -29.565557 12.620717 -43.766109 18.698709 -9.622652 29.217501 -16.132257 10.904942 13.132696 64.761353 -44.528030 -30.854502 12.580626 7.283995 10.151134 0.335481 7.040464 40.682312 0.938097 -4.374068 46.052765 5.385913 1.595328 -39.497429 -64.148651 -41.865505 125.131516 23.182280 17.870556 26.772493 15.427159 4.121610 
-5.526126 5.251863 -34.483669 -90.012436 5.634772 90.001831 -8.672758 2.868284 -2.355940 -6.594344 7.293159 -0.236451 -2.004991 8.992908 -0.001564 -10.001775 -0.001086 -15.232783 -10.065535 -18.647781 -5.317895 -51.220936 -64.751671 3.434371 10.804420 -8.613377 4.644128 -64.861427 -29.501398 12.601268 -43.766109 18.698709 -9.622652 29.217501 -16.132257 10.904942 13.132696 64.761353 -44.528030 -30.854502 12.580626 7.283995 10.560678 0.340817 7.022610 40.399979 0.886071 -4.376083 46.052765 5.385913 1.595328 -39.006687 -64.173851 -42.023685 125.131516 23.182280 17.870556 26.772493 15.427159 4.121610 
-5.488729 5.251863 -34.500641 -90.012733 5.860166 90.001839 -8.672758 2.868284 -2.355940 -6.594344 7.293159 -0.236451 -2.004991 8.992908 -0.001564 -10.001771 -0.001095 -15.362454 -10.509067 -18.888302 -5.280356 -50.504074 -64.422226 2.814879 10.733975 -8.382944 4.630675 -65.005302 -29.437279 12.581645 -43.766109 18.698709 -9.622652 29.217501 -16.132257 10.904942 13.132696 64.761353 -44.528030 -30.854502 12.580626 7.283995 10.970166 0.346281 7.004797 40.117668 0.834040 -4.377841 46.052765 5.385913 1.595328 -38.515430 -64.198494 -42.182514 125.131516 23.182280 17.870556 26.772493 15.427159 4.121610 
